<svg width="1000" height="1000" viewBox="0 0 1000 1000" xmlns="http://www.w3.org/2000/svg"><defs/><path fill="#a35be6" transform="matrix(0.45750296364003434 0 0 0.45750296364003434 53.5715823405466 41.248000337452375)" d="M 239.52113226161 1029.77624946416 C 237.72113226161 1029.17624946416 236.62113226161 1030.17624946416 237.02113226161 1031.97624946416 C 237.92113226161 1036.47624946416 239.02113226161 1040.77624946416 240.42113226161 1045.07624946416 C 253.32113226161 1085.77624946416 286.12113226161 1117.67624946416 327.32113226161 1129.37624946416 C 331.32113226161 1130.47624946416 335.42113226161 1131.47624946416 339.52113226161 1132.17624946416 C 341.32113226161 1132.47624946416 342.42113226161 1131.27624946416 341.92113226161 1129.47624946416 L 321.92113226161 1059.17624946416 L 239.52113226161 1029.77624946416 Z M 255.52113226161 1050.47624946416 L 311.32113226161 1070.47624946416 L 323.42113226161 1115.17624946416 C 292.62113226161 1104.17624946416 267.92113226161 1080.47624946416 255.52113226161 1050.47624946416 Z"/><path fill="#a35be6" transform="matrix(0.45750296364003434 0 0 0.45750296364003434 53.5715823405466 41.248000337452375)" d="M 241.12113226161 965.47624946416 C 239.72113226161 969.67624946416 238.42113226161 974.07624946416 237.42113226161 978.47624946416 C 237.02113226161 980.27624946416 238.12113226161 981.27624946416 239.92113226161 980.67624946416 L 485.72113226161 895.57624946416 C 487.52113226161 894.97624946416 488.22113226161 895.77624946416 487.42113226161 897.47624946416 L 370.42113226161 1131.07624946416 C 369.62113226161 1132.77624946416 370.42113226161 1133.97624946416 372.32113226161 1133.87624946416 C 376.82113226161 1133.47624946416 381.32113226161 1132.87624946416 385.72113226161 1132.07624946416 C 445.02113226161 1120.97624946416 489.92113226161 1068.87624946416 489.92113226161 1006.47624946416 C 489.92113226161 986.17624946416 485.22113226161 967.07624946416 476.72113226161 949.97624946416 L 514.42113226161 873.67624946416 C 515.22113226161 871.97624946416 514.52113226161 871.17624946416 512.72113226161 871.77624946416 L 432.22113226161 899.57624946416 C 412.12113226161 886.37624946416 388.02113226161 878.57624946416 362.12113226161 878.57624946416 C 306.02113226161 878.67624946416 258.22113226161 915.07624946416 241.12113226161 965.47624946416 Z M 256.42113226161 960.17624946416 C 274.32113226161 919.47624946416 314.92113226161 891.07624946416 362.12113226161 891.07624946416 C 381.92113226161 891.07624946416 400.62113226161 896.07624946416 416.92113226161 904.87624946416 L 256.42113226161 960.17624946416 Z M 477.52113226161 1006.47624946416 C 477.52113226161 1059.47624946416 441.62113226161 1104.17624946416 392.92113226161 1117.67624946416 L 469.62113226161 964.27624946416 C 474.72113226161 977.37624946416 477.52113226161 991.57624946416 477.52113226161 1006.47624946416 Z"/><path fill="#a955f7" transform="matrix(0.45750296364003434 0 0 0.45750296364003434 53.5715823405466 41.248000337452375)" d="M 390.12113226161 983.67624946416 L 318.62113226161 1044.37624946416 L 212.12113226161 1006.27624946416 C 210.32113226161 1005.67624946416 210.32113226161 1004.67624946416 212.12113226161 1004.07624946416 L 459.92113226161 918.17624946416 C 461.72113226161 917.57624946416 462.42113226161 918.37624946416 461.62113226161 920.07624946416 L 357.32113226161 1128.57624946416 C 356.52113226161 1130.27624946416 355.42113226161 1130.17624946416 354.92113226161 1128.37624946416 L 335.02113226161 1054.47624946416 L 390.12113226161 983.67624946416 Z"/><path id="text" fill="#202020" transform="matrix(0.8333667432105288 0 0 0.8333667432105288 257.848315118747 53.36358260795143)" d="M 69.46553444991 503.9742139542 L 85.01753444991 503.9742139542 L 85.01753444991 558.5022139542 L 118.71353444991 558.5022139542 L 118.71353444991 571.1742139542 L 69.46553444991 571.1742139542 L 69.46553444991 503.9742139542 Z M 166.23353444991 524.4702139542 C 170.52153444991 528.2782139542 172.66553444991 534.0222139542 172.66553444991 541.7022139542 L 172.66553444991 571.1742139542 L 158.64953444991 571.1742139542 L 158.64953444991 564.7422139542 C 155.83353444991 569.5422139542 150.58553444991 571.9422139542 142.90553444991 571.9422139542 C 138.93753444991 571.9422139542 135.49753444991 571.2702139542 132.58553444991 569.9262139542 C 129.67353444991 568.5822139542 127.44953444991 566.7262139542 125.91353444991 564.3582139542 C 124.37753444991 561.9902139542 123.60953444991 559.3022139542 123.60953444991 556.2942139542 C 123.60953444991 551.4942139542 125.41753444991 547.7182139542 129.03353444991 544.9662139542 C 132.64953444991 542.2142139542 138.23353444991 540.8382139542 145.78553444991 540.8382139542 L 157.68953444991 540.8382139542 C 157.68953444991 537.5742139542 156.69753444991 535.0622139542 154.71353444991 533.3022139542 C 152.72953444991 531.5422139542 149.75353444991 530.6622139542 145.78553444991 530.6622139542 C 143.03353444991 530.6622139542 140.32953444991 531.0942139542 137.67353444991 531.9582139542 C 135.01753444991 532.8222139542 132.76153444991 533.9902139542 130.90553444991 535.4622139542 L 125.52953444991 524.9982139542 C 128.34553444991 523.0142139542 131.72153444991 521.4782139542 135.65753444991 520.3902139542 C 139.59353444991 519.3022139542 143.64153444991 518.7582139542 147.80153444991 518.7582139542 C 155.80153444991 518.7582139542 161.94553444991 520.6622139542 166.23353444991 524.4702139542 Z M 153.46553444991 560.0862139542 C 155.44953444991 558.9022139542 156.85753444991 557.1582139542 157.68953444991 554.8542139542 L 157.68953444991 549.5742139542 L 147.41753444991 549.5742139542 C 141.27353444991 549.5742139542 138.20153444991 551.5902139542 138.20153444991 555.6222139542 C 138.20153444991 557.5422139542 138.95353444991 559.0622139542 140.45753444991 560.1822139542 C 141.96153444991 561.3022139542 144.02553444991 561.8622139542 146.64953444991 561.8622139542 C 149.20953444991 561.8622139542 151.48153444991 561.2702139542 153.46553444991 560.0862139542 Z M 238.23353444991 519.5262139542 L 238.23353444991 571.1742139542 L 224.02553444991 571.1742139542 L 224.02553444991 565.0302139542 C 222.04153444991 567.2702139542 219.67353444991 568.9822139542 216.92153444991 570.1662139542 C 214.16953444991 571.3502139542 211.19353444991 571.9422139542 207.99353444991 571.9422139542 C 201.20953444991 571.9422139542 195.83353444991 569.9902139542 191.86553444991 566.0862139542 C 187.89753444991 562.1822139542 185.91353444991 556.3902139542 185.91353444991 548.7102139542 L 185.91353444991 519.5262139542 L 200.88953444991 519.5262139542 L 200.88953444991 546.5022139542 C 200.88953444991 554.8222139542 204.37753444991 558.9822139542 211.35353444991 558.9822139542 C 214.93753444991 558.9822139542 217.81753444991 557.8142139542 219.99353444991 555.4782139542 C 222.16953444991 553.1422139542 223.25753444991 549.6702139542 223.25753444991 545.0622139542 L 223.25753444991 519.5262139542 L 238.23353444991 519.5262139542 Z M 299.04953444991 524.5182139542 C 302.98553444991 528.3582139542 304.95353444991 534.0542139542 304.95353444991 541.6062139542 L 304.95353444991 571.1742139542 L 289.97753444991 571.1742139542 L 289.97753444991 543.9102139542 C 289.97753444991 539.8142139542 289.08153444991 536.7582139542 287.28953444991 534.7422139542 C 285.49753444991 532.7262139542 282.90553444991 531.7182139542 279.51353444991 531.7182139542 C 275.73753444991 531.7182139542 272.72953444991 532.8862139542 270.48953444991 535.2222139542 C 268.24953444991 537.5582139542 267.12953444991 541.0302139542 267.12953444991 545.6382139542 L 267.12953444991 571.1742139542 L 252.15353444991 571.1742139542 L 252.15353444991 519.5262139542 L 266.45753444991 519.5262139542 L 266.45753444991 525.5742139542 C 268.44153444991 523.3982139542 270.90553444991 521.7182139542 273.84953444991 520.5342139542 C 276.79353444991 519.3502139542 280.02553444991 518.7582139542 283.54553444991 518.7582139542 C 289.94553444991 518.7582139542 295.11353444991 520.6782139542 299.04953444991 524.5182139542 Z M 329.19353444991 568.5342139542 C 324.80953444991 566.2622139542 321.38553444991 563.1102139542 318.92153444991 559.0782139542 C 316.45753444991 555.0462139542 315.22553444991 550.4702139542 315.22553444991 545.3502139542 C 315.22553444991 540.2302139542 316.45753444991 535.6542139542 318.92153444991 531.6222139542 C 321.38553444991 527.5902139542 324.80953444991 524.4382139542 329.19353444991 522.1662139542 C 333.57753444991 519.8942139542 338.52153444991 518.7582139542 344.02553444991 518.7582139542 C 349.46553444991 518.7582139542 354.21753444991 519.8942139542 358.28153444991 522.1662139542 C 362.34553444991 524.4382139542 365.30553444991 527.6862139542 367.16153444991 531.9102139542 L 355.54553444991 538.1502139542 C 352.85753444991 533.4142139542 348.98553444991 531.0462139542 343.92953444991 531.0462139542 C 340.02553444991 531.0462139542 336.79353444991 532.3262139542 334.23353444991 534.8862139542 C 331.67353444991 537.4462139542 330.39353444991 540.9342139542 330.39353444991 545.3502139542 C 330.39353444991 549.7662139542 331.67353444991 553.2542139542 334.23353444991 555.8142139542 C 336.79353444991 558.3742139542 340.02553444991 559.6542139542 343.92953444991 559.6542139542 C 349.04953444991 559.6542139542 352.92153444991 557.2862139542 355.54553444991 552.5502139542 L 367.16153444991 558.8862139542 C 365.30553444991 562.9822139542 362.34553444991 566.1822139542 358.28153444991 568.4862139542 C 354.21753444991 570.7902139542 349.46553444991 571.9422139542 344.02553444991 571.9422139542 C 338.52153444991 571.9422139542 333.57753444991 570.8062139542 329.19353444991 568.5342139542 Z M 422.31353444991 524.5182139542 C 426.24953444991 528.3582139542 428.21753444991 534.0542139542 428.21753444991 541.6062139542 L 428.21753444991 571.1742139542 L 413.24153444991 571.1742139542 L 413.24153444991 543.9102139542 C 413.24153444991 539.8142139542 412.34553444991 536.7582139542 410.55353444991 534.7422139542 C 408.76153444991 532.7262139542 406.16953444991 531.7182139542 402.77753444991 531.7182139542 C 399.00153444991 531.7182139542 395.99353444991 532.8862139542 393.75353444991 535.2222139542 C 391.51353444991 537.5582139542 390.39353444991 541.0302139542 390.39353444991 545.6382139542 L 390.39353444991 571.1742139542 L 375.41753444991 571.1742139542 L 375.41753444991 499.9422139542 L 390.39353444991 499.9422139542 L 390.39353444991 524.9022139542 C 392.37753444991 522.9182139542 394.77753444991 521.3982139542 397.59353444991 520.3422139542 C 400.40953444991 519.2862139542 403.48153444991 518.7582139542 406.80953444991 518.7582139542 C 413.20953444991 518.7582139542 418.37753444991 520.6782139542 422.31353444991 524.5182139542 Z M 531.12953444991 571.1742139542 L 531.03353444991 530.8542139542 L 511.25753444991 564.0702139542 L 504.24953444991 564.0702139542 L 484.56953444991 531.7182139542 L 484.56953444991 571.1742139542 L 469.97753444991 571.1742139542 L 469.97753444991 503.9742139542 L 482.84153444991 503.9742139542 L 507.99353444991 545.7342139542 L 532.76153444991 503.9742139542 L 545.52953444991 503.9742139542 L 545.72153444991 571.1742139542 L 531.12953444991 571.1742139542 Z M 599.86553444991 524.4702139542 C 604.15353444991 528.2782139542 606.29753444991 534.0222139542 606.29753444991 541.7022139542 L 606.29753444991 571.1742139542 L 592.28153444991 571.1742139542 L 592.28153444991 564.7422139542 C 589.46553444991 569.5422139542 584.21753444991 571.9422139542 576.53753444991 571.9422139542 C 572.56953444991 571.9422139542 569.12953444991 571.2702139542 566.21753444991 569.9262139542 C 563.30553444991 568.5822139542 561.08153444991 566.7262139542 559.54553444991 564.3582139542 C 558.00953444991 561.9902139542 557.24153444991 559.3022139542 557.24153444991 556.2942139542 C 557.24153444991 551.4942139542 559.04953444991 547.7182139542 562.66553444991 544.9662139542 C 566.28153444991 542.2142139542 571.86553444991 540.8382139542 579.41753444991 540.8382139542 L 591.32153444991 540.8382139542 C 591.32153444991 537.5742139542 590.32953444991 535.0622139542 588.34553444991 533.3022139542 C 586.36153444991 531.5422139542 583.38553444991 530.6622139542 579.41753444991 530.6622139542 C 576.66553444991 530.6622139542 573.96153444991 531.0942139542 571.30553444991 531.9582139542 C 568.64953444991 532.8222139542 566.39353444991 533.9902139542 564.53753444991 535.4622139542 L 559.16153444991 524.9982139542 C 561.97753444991 523.0142139542 565.35353444991 521.4782139542 569.28953444991 520.3902139542 C 573.22553444991 519.3022139542 577.27353444991 518.7582139542 581.43353444991 518.7582139542 C 589.43353444991 518.7582139542 595.57753444991 520.6622139542 599.86553444991 524.4702139542 Z M 587.09753444991 560.0862139542 C 589.08153444991 558.9022139542 590.48953444991 557.1582139542 591.32153444991 554.8542139542 L 591.32153444991 549.5742139542 L 581.04953444991 549.5742139542 C 574.90553444991 549.5742139542 571.83353444991 551.5902139542 571.83353444991 555.6222139542 C 571.83353444991 557.5422139542 572.58553444991 559.0622139542 574.08953444991 560.1822139542 C 575.59353444991 561.3022139542 577.65753444991 561.8622139542 580.28153444991 561.8622139542 C 582.84153444991 561.8622139542 585.11353444991 561.2702139542 587.09753444991 560.0862139542 Z M 653.14553444991 568.6782139542 C 651.67353444991 569.7662139542 649.86553444991 570.5822139542 647.72153444991 571.1262139542 C 645.57753444991 571.6702139542 643.32153444991 571.9422139542 640.95353444991 571.9422139542 C 634.80953444991 571.9422139542 630.05753444991 570.3742139542 626.69753444991 567.2382139542 C 623.33753444991 564.1022139542 621.65753444991 559.4942139542 621.65753444991 553.4142139542 L 621.65753444991 532.1982139542 L 613.68953444991 532.1982139542 L 613.68953444991 520.6782139542 L 621.65753444991 520.6782139542 L 621.65753444991 508.1022139542 L 636.63353444991 508.1022139542 L 636.63353444991 520.6782139542 L 649.49753444991 520.6782139542 L 649.49753444991 532.1982139542 L 636.63353444991 532.1982139542 L 636.63353444991 553.2222139542 C 636.63353444991 555.3982139542 637.19353444991 557.0782139542 638.31353444991 558.2622139542 C 639.43353444991 559.4462139542 641.01753444991 560.0382139542 643.06553444991 560.0382139542 C 645.43353444991 560.0382139542 647.44953444991 559.3982139542 649.11353444991 558.1182139542 L 653.14553444991 568.6782139542 Z M 710.26553444991 549.5742139542 L 671.19353444991 549.5742139542 C 671.89753444991 552.7742139542 673.56153444991 555.3022139542 676.18553444991 557.1582139542 C 678.80953444991 559.0142139542 682.07353444991 559.9422139542 685.97753444991 559.9422139542 C 688.66553444991 559.9422139542 691.04953444991 559.5422139542 693.12953444991 558.7422139542 C 695.20953444991 557.9422139542 697.14553444991 556.6782139542 698.93753444991 554.9502139542 L 706.90553444991 563.5902139542 C 702.04153444991 569.1582139542 694.93753444991 571.9422139542 685.59353444991 571.9422139542 C 679.76953444991 571.9422139542 674.61753444991 570.8062139542 670.13753444991 568.5342139542 C 665.65753444991 566.2622139542 662.20153444991 563.1102139542 659.76953444991 559.0782139542 C 657.33753444991 555.0462139542 656.12153444991 550.4702139542 656.12153444991 545.3502139542 C 656.12153444991 540.2942139542 657.32153444991 535.7342139542 659.72153444991 531.6702139542 C 662.12153444991 527.6062139542 665.41753444991 524.4382139542 669.60953444991 522.1662139542 C 673.80153444991 519.8942139542 678.48953444991 518.7582139542 683.67353444991 518.7582139542 C 688.72953444991 518.7582139542 693.30553444991 519.8462139542 697.40153444991 522.0222139542 C 701.49753444991 524.1982139542 704.71353444991 527.3182139542 707.04953444991 531.3822139542 C 709.38553444991 535.4462139542 710.55353444991 540.1662139542 710.55353444991 545.5422139542 C 710.55353444991 545.7342139542 710.45753444991 547.0782139542 710.26553444991 549.5742139542 Z M 675.22553444991 532.9662139542 C 672.92153444991 534.8862139542 671.51353444991 537.5102139542 671.00153444991 540.8382139542 L 696.44153444991 540.8382139542 C 695.92953444991 537.5742139542 694.52153444991 534.9662139542 692.21753444991 533.0142139542 C 689.91353444991 531.0622139542 687.09753444991 530.0862139542 683.76953444991 530.0862139542 C 680.37753444991 530.0862139542 677.52953444991 531.0462139542 675.22553444991 532.9662139542 Z"/></svg>